<svg xmlns="http://www.w3.org/2000/svg" xmlns:xlink="http://www.w3.org/1999/xlink" width="414" zoomAndPan="magnify" viewBox="0 0 310.5 671.999985" height="896" preserveAspectRatio="xMidYMid meet" version="1.0"><defs><g/><clipPath id="f93899ca81"><path d="M 11.035156 10.40625 L 299.785156 10.40625 L 299.785156 671.457031 L 11.035156 671.457031 Z M 11.035156 10.40625 " clip-rule="nonzero"/></clipPath><clipPath id="562fe628e1"><path d="M 18.660156 17.703125 L 292.410156 17.703125 L 292.410156 71.703125 L 18.660156 71.703125 Z M 18.660156 17.703125 " clip-rule="nonzero"/></clipPath><clipPath id="1cb0028404"><path d="M 47.554688 153.050781 L 102.375 153.050781 L 102.375 207.867188 L 47.554688 207.867188 Z M 47.554688 153.050781 " clip-rule="nonzero"/></clipPath><clipPath id="3d63287196"><path d="M 118.71875 157.386719 L 259.683594 157.386719 L 259.683594 173.046875 L 118.71875 173.046875 Z M 118.71875 157.386719 " clip-rule="nonzero"/></clipPath><clipPath id="a9da5c4bca"><path d="M 120.140625 178.488281 L 226.222656 178.488281 L 226.222656 187.742188 L 120.140625 187.742188 Z M 120.140625 178.488281 " clip-rule="nonzero"/></clipPath><clipPath id="0a679c4467"><path d="M 120.140625 190.917969 L 226.222656 190.917969 L 226.222656 200.171875 L 120.140625 200.171875 Z M 120.140625 190.917969 " clip-rule="nonzero"/></clipPath><clipPath id="81503a0d97"><path d="M 47.554688 224.664062 L 102.375 224.664062 L 102.375 279.484375 L 47.554688 279.484375 Z M 47.554688 224.664062 " clip-rule="nonzero"/></clipPath><clipPath id="35d0e1dfb6"><path d="M 118.71875 229 L 259.683594 229 L 259.683594 244.664062 L 118.71875 244.664062 Z M 118.71875 229 " clip-rule="nonzero"/></clipPath><clipPath id="44dc18da9b"><path d="M 120.140625 250.101562 L 226.222656 250.101562 L 226.222656 259.359375 L 120.140625 259.359375 Z M 120.140625 250.101562 " clip-rule="nonzero"/></clipPath><clipPath id="e9b65067fd"><path d="M 120.140625 262.53125 L 226.222656 262.53125 L 226.222656 271.789062 L 120.140625 271.789062 Z M 120.140625 262.53125 " clip-rule="nonzero"/></clipPath><clipPath id="17f9fd7048"><path d="M 47.554688 296.277344 L 102.375 296.277344 L 102.375 351.097656 L 47.554688 351.097656 Z M 47.554688 296.277344 " clip-rule="nonzero"/></clipPath><clipPath id="4583133830"><path d="M 118.71875 300.613281 L 259.683594 300.613281 L 259.683594 316.277344 L 118.71875 316.277344 Z M 118.71875 300.613281 " clip-rule="nonzero"/></clipPath><clipPath id="5fbad4abd8"><path d="M 120.140625 321.71875 L 226.222656 321.71875 L 226.222656 330.972656 L 120.140625 330.972656 Z M 120.140625 321.71875 " clip-rule="nonzero"/></clipPath><clipPath id="71417efdc2"><path d="M 120.140625 334.148438 L 226.222656 334.148438 L 226.222656 343.402344 L 120.140625 343.402344 Z M 120.140625 334.148438 " clip-rule="nonzero"/></clipPath><clipPath id="a5a18bbb38"><path d="M 139.371094 114.582031 L 151.371094 114.582031 L 151.371094 121.332031 L 139.371094 121.332031 Z M 139.371094 114.582031 " clip-rule="nonzero"/></clipPath><clipPath id="b689d579be"><path d="M 108.953125 396.1875 L 120.953125 396.1875 L 120.953125 402.9375 L 108.953125 402.9375 Z M 108.953125 396.1875 " clip-rule="nonzero"/></clipPath><clipPath id="747fd6d418"><path d="M 46.84375 434.703125 L 101.664062 434.703125 L 101.664062 489.523438 L 46.84375 489.523438 Z M 46.84375 434.703125 " clip-rule="nonzero"/></clipPath><clipPath id="d5829c59e7"><path d="M 118.003906 439.039062 L 258.972656 439.039062 L 258.972656 454.703125 L 118.003906 454.703125 Z M 118.003906 439.039062 " clip-rule="nonzero"/></clipPath><clipPath id="d7d36650e1"><path d="M 119.429688 460.140625 L 225.511719 460.140625 L 225.511719 469.394531 L 119.429688 469.394531 Z M 119.429688 460.140625 " clip-rule="nonzero"/></clipPath><clipPath id="fd516be836"><path d="M 119.429688 472.570312 L 225.511719 472.570312 L 225.511719 481.824219 L 119.429688 481.824219 Z M 119.429688 472.570312 " clip-rule="nonzero"/></clipPath><clipPath id="f4cf1c5f65"><path d="M 46.84375 506.316406 L 101.664062 506.316406 L 101.664062 561.136719 L 46.84375 561.136719 Z M 46.84375 506.316406 " clip-rule="nonzero"/></clipPath><clipPath id="95cb86a280"><path d="M 118.003906 510.652344 L 258.972656 510.652344 L 258.972656 526.316406 L 118.003906 526.316406 Z M 118.003906 510.652344 " clip-rule="nonzero"/></clipPath><clipPath id="82e662761b"><path d="M 119.429688 531.753906 L 225.511719 531.753906 L 225.511719 541.011719 L 119.429688 541.011719 Z M 119.429688 531.753906 " clip-rule="nonzero"/></clipPath><clipPath id="2e97c0111b"><path d="M 119.429688 544.183594 L 225.511719 544.183594 L 225.511719 553.441406 L 119.429688 553.441406 Z M 119.429688 544.183594 " clip-rule="nonzero"/></clipPath><clipPath id="a84af43cab"><path d="M 46.84375 577.929688 L 101.664062 577.929688 L 101.664062 632.75 L 46.84375 632.75 Z M 46.84375 577.929688 " clip-rule="nonzero"/></clipPath><clipPath id="bec1760d8b"><path d="M 118.003906 582.269531 L 258.972656 582.269531 L 258.972656 597.929688 L 118.003906 597.929688 Z M 118.003906 582.269531 " clip-rule="nonzero"/></clipPath><clipPath id="6424d3e417"><path d="M 119.429688 603.371094 L 225.511719 603.371094 L 225.511719 612.625 L 119.429688 612.625 Z M 119.429688 603.371094 " clip-rule="nonzero"/></clipPath><clipPath id="f13f601b2d"><path d="M 119.429688 615.800781 L 225.511719 615.800781 L 225.511719 625.054688 L 119.429688 625.054688 Z M 119.429688 615.800781 " clip-rule="nonzero"/></clipPath></defs><g clip-path="url(#f93899ca81)"><path fill="#ffd21b" d="M 37.316406 10.410156 L 273.507812 10.410156 C 280.476562 10.410156 287.160156 13.175781 292.089844 18.101562 C 297.015625 23.023438 299.785156 29.703125 299.785156 36.664062 L 299.785156 646.394531 C 299.785156 653.359375 297.015625 660.035156 292.089844 664.960938 C 287.160156 669.882812 280.476562 672.648438 273.507812 672.648438 L 37.316406 672.648438 C 30.34375 672.648438 23.660156 669.882812 18.734375 664.960938 C 13.804688 660.035156 11.035156 653.359375 11.035156 646.394531 L 11.035156 36.664062 C 11.035156 29.703125 13.804688 23.023438 18.734375 18.101562 C 23.660156 13.175781 30.34375 10.410156 37.316406 10.410156 " fill-opacity="1" fill-rule="nonzero"/></g><g clip-path="url(#562fe628e1)"><path fill="#101010" d="M 38.917969 17.703125 L 272.15625 17.703125 C 283.34375 17.703125 292.410156 26.726562 292.410156 37.855469 L 292.410156 51.550781 C 292.410156 62.679688 283.34375 71.703125 272.15625 71.703125 L 38.917969 71.703125 C 27.730469 71.703125 18.664062 62.679688 18.664062 51.550781 L 18.664062 37.855469 C 18.664062 26.726562 27.730469 17.703125 38.917969 17.703125 " fill-opacity="1" fill-rule="nonzero"/></g><g clip-path="url(#1cb0028404)"><path fill="#737373" d="M 58.738281 153.050781 L 91.191406 153.050781 C 94.15625 153.050781 97 154.238281 99.097656 156.355469 C 101.195312 158.472656 102.375 161.34375 102.375 164.335938 L 102.375 196.582031 C 102.375 199.574219 101.195312 202.445312 99.097656 204.5625 C 97 206.679688 94.15625 207.867188 91.191406 207.867188 L 58.738281 207.867188 C 55.773438 207.867188 52.925781 206.679688 50.828125 204.5625 C 48.734375 202.445312 47.554688 199.574219 47.554688 196.582031 L 47.554688 164.335938 C 47.554688 161.34375 48.734375 158.472656 50.828125 156.355469 C 52.925781 154.238281 55.773438 153.050781 58.738281 153.050781 " fill-opacity="1" fill-rule="nonzero"/></g><g clip-path="url(#3d63287196)"><path fill="#737373" d="M 126.597656 157.386719 L 251.804688 157.386719 C 253.886719 157.386719 255.882812 158.210938 257.355469 159.679688 C 258.828125 161.148438 259.652344 163.140625 259.652344 165.21875 C 259.652344 167.292969 258.828125 169.285156 257.355469 170.753906 C 255.882812 172.222656 253.886719 173.046875 251.804688 173.046875 L 126.597656 173.046875 C 124.515625 173.046875 122.519531 172.222656 121.046875 170.753906 C 119.574219 169.285156 118.746094 167.292969 118.746094 165.21875 C 118.746094 163.140625 119.574219 161.148438 121.046875 159.679688 C 122.519531 158.210938 124.515625 157.386719 126.597656 157.386719 " fill-opacity="1" fill-rule="nonzero"/></g><g clip-path="url(#a9da5c4bca)"><path fill="#a6a6a6" d="M 124.960938 178.488281 L 221.402344 178.488281 C 222.675781 178.488281 223.898438 178.976562 224.796875 179.84375 C 225.699219 180.710938 226.203125 181.886719 226.203125 183.117188 C 226.203125 184.34375 225.699219 185.519531 224.796875 186.386719 C 223.898438 187.253906 222.675781 187.742188 221.402344 187.742188 L 124.960938 187.742188 C 123.6875 187.742188 122.464844 187.253906 121.566406 186.386719 C 120.664062 185.519531 120.160156 184.34375 120.160156 183.117188 C 120.160156 181.886719 120.664062 180.710938 121.566406 179.84375 C 122.464844 178.976562 123.6875 178.488281 124.960938 178.488281 " fill-opacity="1" fill-rule="nonzero"/></g><g clip-path="url(#0a679c4467)"><path fill="#a6a6a6" d="M 124.960938 190.917969 L 221.402344 190.917969 C 222.675781 190.917969 223.898438 191.40625 224.796875 192.273438 C 225.699219 193.140625 226.203125 194.316406 226.203125 195.546875 C 226.203125 196.773438 225.699219 197.949219 224.796875 198.816406 C 223.898438 199.683594 222.675781 200.171875 221.402344 200.171875 L 124.960938 200.171875 C 123.6875 200.171875 122.464844 199.683594 121.566406 198.816406 C 120.664062 197.949219 120.160156 196.773438 120.160156 195.546875 C 120.160156 194.316406 120.664062 193.140625 121.566406 192.273438 C 122.464844 191.40625 123.6875 190.917969 124.960938 190.917969 " fill-opacity="1" fill-rule="nonzero"/></g><g clip-path="url(#81503a0d97)"><path fill="#737373" d="M 58.738281 224.664062 L 91.191406 224.664062 C 94.15625 224.664062 97 225.851562 99.097656 227.96875 C 101.195312 230.085938 102.375 232.957031 102.375 235.953125 L 102.375 268.195312 C 102.375 271.1875 101.195312 274.058594 99.097656 276.175781 C 97 278.292969 94.15625 279.484375 91.191406 279.484375 L 58.738281 279.484375 C 55.773438 279.484375 52.925781 278.292969 50.828125 276.175781 C 48.734375 274.058594 47.554688 271.1875 47.554688 268.195312 L 47.554688 235.953125 C 47.554688 232.957031 48.734375 230.085938 50.828125 227.96875 C 52.925781 225.851562 55.773438 224.664062 58.738281 224.664062 " fill-opacity="1" fill-rule="nonzero"/></g><g clip-path="url(#35d0e1dfb6)"><path fill="#737373" d="M 126.597656 229 L 251.804688 229 C 253.886719 229 255.882812 229.824219 257.355469 231.292969 C 258.828125 232.761719 259.652344 234.753906 259.652344 236.832031 C 259.652344 238.910156 258.828125 240.902344 257.355469 242.371094 C 255.882812 243.835938 253.886719 244.664062 251.804688 244.664062 L 126.597656 244.664062 C 124.515625 244.664062 122.519531 243.835938 121.046875 242.371094 C 119.574219 240.902344 118.746094 238.910156 118.746094 236.832031 C 118.746094 234.753906 119.574219 232.761719 121.046875 231.292969 C 122.519531 229.824219 124.515625 229 126.597656 229 " fill-opacity="1" fill-rule="nonzero"/></g><g clip-path="url(#44dc18da9b)"><path fill="#a6a6a6" d="M 124.960938 250.101562 L 221.402344 250.101562 C 222.675781 250.101562 223.898438 250.589844 224.796875 251.457031 C 225.699219 252.324219 226.203125 253.503906 226.203125 254.730469 C 226.203125 255.957031 225.699219 257.132812 224.796875 258.003906 C 223.898438 258.871094 222.675781 259.359375 221.402344 259.359375 L 124.960938 259.359375 C 123.6875 259.359375 122.464844 258.871094 121.566406 258.003906 C 120.664062 257.132812 120.160156 255.957031 120.160156 254.730469 C 120.160156 253.503906 120.664062 252.324219 121.566406 251.457031 C 122.464844 250.589844 123.6875 250.101562 124.960938 250.101562 " fill-opacity="1" fill-rule="nonzero"/></g><g clip-path="url(#e9b65067fd)"><path fill="#a6a6a6" d="M 124.960938 262.53125 L 221.402344 262.53125 C 222.675781 262.53125 223.898438 263.019531 224.796875 263.886719 C 225.699219 264.753906 226.203125 265.933594 226.203125 267.160156 C 226.203125 268.386719 225.699219 269.5625 224.796875 270.433594 C 223.898438 271.300781 222.675781 271.789062 221.402344 271.789062 L 124.960938 271.789062 C 123.6875 271.789062 122.464844 271.300781 121.566406 270.433594 C 120.664062 269.5625 120.160156 268.386719 120.160156 267.160156 C 120.160156 265.933594 120.664062 264.753906 121.566406 263.886719 C 122.464844 263.019531 123.6875 262.53125 124.960938 262.53125 " fill-opacity="1" fill-rule="nonzero"/></g><g clip-path="url(#17f9fd7048)"><path fill="#737373" d="M 58.738281 296.277344 L 91.191406 296.277344 C 94.15625 296.277344 97 297.46875 99.097656 299.585938 C 101.195312 301.703125 102.375 304.574219 102.375 307.566406 L 102.375 339.808594 C 102.375 342.804688 101.195312 345.675781 99.097656 347.792969 C 97 349.910156 94.15625 351.097656 91.191406 351.097656 L 58.738281 351.097656 C 55.773438 351.097656 52.925781 349.910156 50.828125 347.792969 C 48.734375 345.675781 47.554688 342.804688 47.554688 339.808594 L 47.554688 307.566406 C 47.554688 304.574219 48.734375 301.703125 50.828125 299.585938 C 52.925781 297.46875 55.773438 296.277344 58.738281 296.277344 " fill-opacity="1" fill-rule="nonzero"/></g><g clip-path="url(#4583133830)"><path fill="#737373" d="M 126.597656 300.613281 L 251.804688 300.613281 C 253.886719 300.613281 255.882812 301.441406 257.355469 302.910156 C 258.828125 304.378906 259.652344 306.367188 259.652344 308.445312 C 259.652344 310.523438 258.828125 312.515625 257.355469 313.984375 C 255.882812 315.453125 253.886719 316.277344 251.804688 316.277344 L 126.597656 316.277344 C 124.515625 316.277344 122.519531 315.453125 121.046875 313.984375 C 119.574219 312.515625 118.746094 310.523438 118.746094 308.445312 C 118.746094 306.367188 119.574219 304.378906 121.046875 302.910156 C 122.519531 301.441406 124.515625 300.613281 126.597656 300.613281 " fill-opacity="1" fill-rule="nonzero"/></g><g clip-path="url(#5fbad4abd8)"><path fill="#a6a6a6" d="M 124.960938 321.71875 L 221.402344 321.71875 C 222.675781 321.71875 223.898438 322.203125 224.796875 323.074219 C 225.699219 323.941406 226.203125 325.117188 226.203125 326.34375 C 226.203125 327.570312 225.699219 328.75 224.796875 329.617188 C 223.898438 330.484375 222.675781 330.972656 221.402344 330.972656 L 124.960938 330.972656 C 123.6875 330.972656 122.464844 330.484375 121.566406 329.617188 C 120.664062 328.75 120.160156 327.570312 120.160156 326.34375 C 120.160156 325.117188 120.664062 323.941406 121.566406 323.074219 C 122.464844 322.203125 123.6875 321.71875 124.960938 321.71875 " fill-opacity="1" fill-rule="nonzero"/></g><g clip-path="url(#71417efdc2)"><path fill="#a6a6a6" d="M 124.960938 334.148438 L 221.402344 334.148438 C 222.675781 334.148438 223.898438 334.632812 224.796875 335.503906 C 225.699219 336.371094 226.203125 337.546875 226.203125 338.773438 C 226.203125 340 225.699219 341.179688 224.796875 342.046875 C 223.898438 342.914062 222.675781 343.402344 221.402344 343.402344 L 124.960938 343.402344 C 123.6875 343.402344 122.464844 342.914062 121.566406 342.046875 C 120.664062 341.179688 120.160156 340 120.160156 338.773438 C 120.160156 337.546875 120.664062 336.371094 121.566406 335.503906 C 122.464844 334.632812 123.6875 334.148438 124.960938 334.148438 " fill-opacity="1" fill-rule="nonzero"/></g><g clip-path="url(#a5a18bbb38)"><path fill="#101010" d="M 145.386719 120.433594 L 139.984375 114.722656 C 139.851562 114.585938 139.640625 114.585938 139.507812 114.722656 C 139.375 114.863281 139.375 115.089844 139.507812 115.230469 L 145.148438 121.195312 C 145.28125 121.335938 145.496094 121.335938 145.628906 121.195312 L 151.269531 115.230469 C 151.332031 115.160156 151.367188 115.070312 151.367188 114.980469 C 151.367188 114.890625 151.335938 114.796875 151.269531 114.726562 C 151.136719 114.585938 150.921875 114.585938 150.789062 114.726562 Z M 145.386719 120.433594 " fill-opacity="1" fill-rule="nonzero"/></g><g fill="#ffffff" fill-opacity="1"><g transform="translate(126.666648, 54.443013)"><g><path d="M 1.34375 0 C 1.257812 0 1.21875 -0.0507812 1.21875 -0.15625 L 1.28125 -21.046875 C 1.28125 -21.117188 1.320312 -21.15625 1.40625 -21.15625 L 5.109375 -21.15625 C 5.191406 -21.15625 5.265625 -21.117188 5.328125 -21.046875 L 8.09375 -17.03125 L 10.859375 -21.046875 C 10.921875 -21.117188 10.988281 -21.15625 11.0625 -21.15625 L 14.8125 -21.15625 C 14.882812 -21.15625 14.921875 -21.117188 14.921875 -21.046875 L 14.984375 -0.15625 C 14.984375 -0.0507812 14.945312 0 14.875 0 L 11.4375 0 C 11.351562 0 11.3125 -0.0507812 11.3125 -0.15625 L 11.28125 -15.65625 L 8.09375 -11.03125 L 4.921875 -15.65625 L 4.890625 -0.15625 C 4.890625 -0.0507812 4.851562 0 4.78125 0 Z M 1.34375 0 "/></g></g></g><g fill="#ffffff" fill-opacity="1"><g transform="translate(142.986767, 54.443013)"><g><path d="M 1.34375 0 C 1.257812 0 1.21875 -0.0507812 1.21875 -0.15625 L 1.25 -21.046875 C 1.25 -21.117188 1.289062 -21.15625 1.375 -21.15625 L 11.125 -21.15625 C 11.207031 -21.15625 11.25 -21.109375 11.25 -21.015625 L 11.25 -17.609375 C 11.25 -17.523438 11.207031 -17.484375 11.125 -17.484375 L 4.890625 -17.484375 L 4.890625 -12.734375 L 11.125 -12.734375 C 11.207031 -12.734375 11.25 -12.695312 11.25 -12.625 L 11.28125 -9.1875 C 11.28125 -9.101562 11.238281 -9.0625 11.15625 -9.0625 L 4.890625 -9.0625 L 4.890625 -3.734375 L 11.15625 -3.734375 C 11.238281 -3.734375 11.28125 -3.6875 11.28125 -3.59375 L 11.28125 -0.125 C 11.28125 -0.0390625 11.238281 0 11.15625 0 Z M 1.34375 0 "/></g></g></g><g fill="#ffffff" fill-opacity="1"><g transform="translate(155.751105, 54.443013)"><g><path d="M 1.484375 0 C 1.328125 0 1.25 -0.0703125 1.25 -0.21875 L 1.21875 -20.921875 C 1.21875 -21.078125 1.296875 -21.15625 1.453125 -21.15625 L 4.203125 -21.15625 L 9.328125 -9.1875 L 9.1875 -20.921875 C 9.1875 -21.078125 9.273438 -21.15625 9.453125 -21.15625 L 12.46875 -21.15625 C 12.59375 -21.15625 12.65625 -21.078125 12.65625 -20.921875 L 12.671875 -0.1875 C 12.671875 -0.0625 12.625 0 12.53125 0 L 9.859375 0 L 4.59375 -11.1875 L 4.796875 -0.25 C 4.796875 -0.0820312 4.707031 0 4.53125 0 Z M 1.484375 0 "/></g></g></g><g fill="#ffffff" fill-opacity="1"><g transform="translate(169.852661, 54.443013)"><g><path d="M 6.8125 0.296875 C 5.738281 0.296875 4.742188 0.0195312 3.828125 -0.53125 C 2.921875 -1.09375 2.195312 -1.835938 1.65625 -2.765625 C 1.113281 -3.703125 0.84375 -4.726562 0.84375 -5.84375 L 0.90625 -21.046875 C 0.90625 -21.117188 0.945312 -21.15625 1.03125 -21.15625 L 4.4375 -21.15625 C 4.519531 -21.15625 4.5625 -21.117188 4.5625 -21.046875 L 4.5625 -5.84375 C 4.5625 -5.144531 4.78125 -4.554688 5.21875 -4.078125 C 5.65625 -3.609375 6.1875 -3.375 6.8125 -3.375 C 7.457031 -3.375 8 -3.609375 8.4375 -4.078125 C 8.875 -4.554688 9.09375 -5.144531 9.09375 -5.84375 L 9.09375 -21.046875 C 9.09375 -21.117188 9.132812 -21.15625 9.21875 -21.15625 L 12.625 -21.15625 C 12.695312 -21.15625 12.734375 -21.117188 12.734375 -21.046875 L 12.796875 -5.84375 C 12.796875 -4.707031 12.523438 -3.671875 11.984375 -2.734375 C 11.453125 -1.804688 10.734375 -1.066406 9.828125 -0.515625 C 8.929688 0.0234375 7.925781 0.296875 6.8125 0.296875 Z M 6.8125 0.296875 "/></g></g></g><g fill="#292929" fill-opacity="1"><g transform="translate(46.842472, 124.19445)"><g><path d="M 6.542969 0 C 7.277344 0 8.9375 -0.101562 10.082031 -1.023438 C 10.746094 -1.589844 11.242188 -2.546875 11.242188 -3.792969 C 11.242188 -5.46875 10.320312 -6.578125 8.644531 -6.851562 C 9.875 -7.175781 10.578125 -8.285156 10.578125 -9.773438 C 10.578125 -10.695312 10.320312 -11.429688 9.773438 -11.976562 C 9.074219 -12.679688 7.929688 -13.039062 6.320312 -13.039062 L 1.160156 -13.039062 L 1.160156 0 Z M 3.621094 -10.832031 L 5.773438 -10.832031 C 6.679688 -10.832031 7.261719 -10.695312 7.636719 -10.371094 C 7.945312 -10.132812 8.097656 -9.757812 8.097656 -9.242188 C 8.097656 -8.183594 7.414062 -7.621094 6.167969 -7.621094 L 3.621094 -7.621094 Z M 3.621094 -5.621094 L 6.511719 -5.621094 C 7.535156 -5.621094 8.765625 -5.5 8.765625 -3.980469 C 8.765625 -3.367188 8.59375 -2.972656 8.285156 -2.71875 C 7.757812 -2.253906 6.902344 -2.203125 6.238281 -2.203125 L 3.621094 -2.203125 Z M 3.621094 -5.621094 "/></g></g></g><g fill="#292929" fill-opacity="1"><g transform="translate(58.769017, 124.19445)"><g><path d="M 3.347656 0 L 3.347656 -4.441406 C 3.347656 -5.707031 3.605469 -6.476562 4.117188 -6.988281 C 4.492188 -7.347656 5.039062 -7.570312 5.828125 -7.570312 L 6.355469 -7.570312 L 6.355469 -9.789062 L 6.082031 -9.789062 C 4.957031 -9.789062 4.082031 -9.449219 3.347656 -8.441406 L 3.347656 -9.585938 L 1.042969 -9.585938 L 1.042969 0 Z M 3.347656 0 "/></g></g></g><g fill="#292929" fill-opacity="1"><g transform="translate(65.449932, 124.19445)"><g><path d="M 5.535156 0.1875 C 8.097656 0.1875 9.570312 -1.367188 10.132812 -3.230469 L 7.773438 -3.230469 C 7.46875 -2.445312 6.714844 -1.792969 5.621094 -1.792969 C 4.628906 -1.792969 3.84375 -2.308594 3.398438 -3.195312 C 3.230469 -3.484375 3.074219 -3.914062 3.042969 -4.324219 L 10.285156 -4.324219 L 10.285156 -4.820312 C 10.285156 -8.285156 7.945312 -9.789062 5.46875 -9.789062 C 2.1875 -9.789062 0.648438 -7.246094 0.648438 -4.734375 C 0.648438 -1.898438 2.597656 0.1875 5.535156 0.1875 Z M 3.144531 -6.046875 C 3.179688 -6.304688 3.261719 -6.628906 3.519531 -6.9375 C 3.964844 -7.621094 4.683594 -7.960938 5.535156 -7.960938 C 6.375 -7.960938 7.125 -7.621094 7.570312 -6.9375 C 7.808594 -6.648438 7.894531 -6.304688 7.929688 -6.046875 Z M 3.144531 -6.046875 "/></g></g></g><g fill="#292929" fill-opacity="1"><g transform="translate(76.385444, 124.19445)"><g><path d="M 3.808594 0.1875 C 4.628906 0.1875 5.382812 0.0507812 5.980469 -0.339844 C 6.339844 -0.5625 6.613281 -0.871094 6.851562 -1.296875 L 6.851562 0 L 9.160156 0 L 9.160156 -4.988281 C 9.160156 -6.320312 9.160156 -7.824219 8.03125 -8.816406 C 7.3125 -9.484375 6.238281 -9.789062 5.125 -9.789062 C 3.230469 -9.789062 1.367188 -8.765625 1.023438 -6.527344 L 3.316406 -6.527344 C 3.484375 -7.433594 4.238281 -7.980469 5.109375 -7.980469 C 5.65625 -7.980469 6.101562 -7.824219 6.390625 -7.519531 C 6.679688 -7.210938 6.835938 -6.75 6.851562 -6.167969 L 4 -5.636719 C 3.195312 -5.484375 2.375 -5.246094 1.761719 -4.820312 C 1.09375 -4.355469 0.667969 -3.65625 0.667969 -2.632812 C 0.667969 -0.804688 2 0.1875 3.808594 0.1875 Z M 4.375 -1.625 C 3.570312 -1.625 2.972656 -2 2.972656 -2.71875 C 2.972656 -3.042969 3.09375 -3.28125 3.28125 -3.46875 C 3.554688 -3.726562 3.945312 -3.894531 4.613281 -4.015625 L 6.902344 -4.476562 C 6.867188 -3.210938 6.613281 -2.390625 5.605469 -1.898438 C 5.230469 -1.707031 4.800781 -1.625 4.375 -1.625 Z M 4.375 -1.625 "/></g></g></g><g fill="#292929" fill-opacity="1"><g transform="translate(86.483708, 124.19445)"><g><path d="M 3.367188 0 L 3.367188 -4.765625 L 7.261719 0 L 10.097656 0 L 5.554688 -5.433594 L 9.789062 -9.585938 L 6.867188 -9.585938 L 3.367188 -6.046875 L 3.367188 -13.039062 L 1.058594 -13.039062 L 1.058594 0 Z M 3.367188 0 "/></g></g></g><g fill="#292929" fill-opacity="1"><g transform="translate(96.667402, 124.19445)"><g><path d="M 4.167969 0 L 4.167969 -7.742188 L 5.929688 -7.742188 L 5.929688 -9.585938 L 4.167969 -9.585938 L 4.167969 -10.234375 C 4.167969 -10.953125 4.546875 -11.207031 5.039062 -11.207031 L 5.929688 -11.207031 L 5.929688 -13.039062 L 4.492188 -13.039062 C 2.769531 -13.039062 1.84375 -12.148438 1.84375 -10.558594 L 1.84375 -9.585938 L 0.394531 -9.585938 L 0.394531 -7.742188 L 1.84375 -7.742188 L 1.84375 0 Z M 4.167969 0 "/></g></g></g><g fill="#292929" fill-opacity="1"><g transform="translate(102.955319, 124.19445)"><g><path d="M 3.808594 0.1875 C 4.628906 0.1875 5.382812 0.0507812 5.980469 -0.339844 C 6.339844 -0.5625 6.613281 -0.871094 6.851562 -1.296875 L 6.851562 0 L 9.160156 0 L 9.160156 -4.988281 C 9.160156 -6.320312 9.160156 -7.824219 8.03125 -8.816406 C 7.3125 -9.484375 6.238281 -9.789062 5.125 -9.789062 C 3.230469 -9.789062 1.367188 -8.765625 1.023438 -6.527344 L 3.316406 -6.527344 C 3.484375 -7.433594 4.238281 -7.980469 5.109375 -7.980469 C 5.65625 -7.980469 6.101562 -7.824219 6.390625 -7.519531 C 6.679688 -7.210938 6.835938 -6.75 6.851562 -6.167969 L 4 -5.636719 C 3.195312 -5.484375 2.375 -5.246094 1.761719 -4.820312 C 1.09375 -4.355469 0.667969 -3.65625 0.667969 -2.632812 C 0.667969 -0.804688 2 0.1875 3.808594 0.1875 Z M 4.375 -1.625 C 3.570312 -1.625 2.972656 -2 2.972656 -2.71875 C 2.972656 -3.042969 3.09375 -3.28125 3.28125 -3.46875 C 3.554688 -3.726562 3.945312 -3.894531 4.613281 -4.015625 L 6.902344 -4.476562 C 6.867188 -3.210938 6.613281 -2.390625 5.605469 -1.898438 C 5.230469 -1.707031 4.800781 -1.625 4.375 -1.625 Z M 4.375 -1.625 "/></g></g></g><g fill="#292929" fill-opacity="1"><g transform="translate(113.053583, 124.19445)"><g><path d="M 5.195312 0.1875 C 7.671875 0.1875 9.140625 -1.042969 9.140625 -2.90625 C 9.140625 -5.109375 7.089844 -5.484375 5.398438 -5.808594 C 4.21875 -6.03125 3.195312 -6.21875 3.195312 -7.003906 C 3.195312 -7.605469 3.757812 -7.980469 4.683594 -7.980469 C 5.621094 -7.980469 6.441406 -7.570312 6.714844 -6.527344 L 8.886719 -6.527344 C 8.542969 -8.613281 6.9375 -9.789062 4.699219 -9.789062 C 2.71875 -9.789062 0.992188 -8.917969 0.992188 -6.921875 C 0.992188 -4.785156 2.9375 -4.375 4.597656 -4.050781 C 5.808594 -3.808594 6.867188 -3.589844 6.867188 -2.734375 C 6.867188 -2.015625 6.152344 -1.625 5.175781 -1.625 C 4 -1.625 3.160156 -2.1875 2.871094 -3.230469 L 0.597656 -3.230469 C 0.921875 -0.820312 3.007812 0.1875 5.195312 0.1875 Z M 5.195312 0.1875 "/></g></g></g><g fill="#292929" fill-opacity="1"><g transform="translate(122.895544, 124.19445)"><g><path d="M 5.945312 0 L 5.945312 -1.914062 L 4.902344 -1.914062 C 4.1875 -1.914062 4.117188 -2.308594 4.117188 -2.800781 L 4.117188 -7.742188 L 5.964844 -7.742188 L 5.964844 -9.585938 L 4.117188 -9.585938 L 4.117188 -13.039062 L 1.8125 -13.039062 L 1.8125 -9.585938 L 0.394531 -9.585938 L 0.394531 -7.742188 L 1.8125 -7.742188 L 1.8125 -2.101562 C 1.8125 -0.613281 2.632812 0 4.050781 0 Z M 5.945312 0 "/></g></g></g><g clip-path="url(#b689d579be)"><path fill="#101010" d="M 114.96875 402.035156 L 109.570312 396.328125 C 109.4375 396.1875 109.222656 396.1875 109.089844 396.328125 C 108.957031 396.46875 108.957031 396.691406 109.089844 396.832031 L 114.730469 402.796875 C 114.863281 402.9375 115.078125 402.9375 115.210938 402.796875 L 120.851562 396.832031 C 120.914062 396.765625 120.949219 396.671875 120.949219 396.582031 C 120.949219 396.492188 120.917969 396.398438 120.851562 396.328125 C 120.71875 396.1875 120.503906 396.1875 120.371094 396.328125 Z M 114.96875 402.035156 " fill-opacity="1" fill-rule="nonzero"/></g><g fill="#292929" fill-opacity="1"><g transform="translate(46.842472, 405.796593)"><g><path d="M 9.140625 0 L 9.140625 -2.203125 L 3.621094 -2.203125 L 3.621094 -13.039062 L 1.160156 -13.039062 L 1.160156 0 Z M 9.140625 0 "/></g></g></g><g fill="#292929" fill-opacity="1"><g transform="translate(56.171829, 405.796593)"><g><path d="M 4.390625 0.1875 C 5.519531 0.1875 6.289062 -0.222656 6.988281 -1.214844 L 6.988281 0 L 9.296875 0 L 9.296875 -9.585938 L 6.988281 -9.585938 L 6.988281 -4.714844 C 6.988281 -3.453125 6.835938 -2.75 6.441406 -2.289062 C 6.117188 -1.898438 5.636719 -1.707031 4.972656 -1.707031 C 4.425781 -1.707031 4.03125 -1.84375 3.757812 -2.136719 C 3.433594 -2.496094 3.296875 -3.058594 3.296875 -4.050781 L 3.296875 -9.585938 L 0.992188 -9.585938 L 0.992188 -4.066406 C 0.992188 -2.683594 1.09375 -2.035156 1.402344 -1.402344 C 1.914062 -0.339844 2.90625 0.1875 4.390625 0.1875 Z M 4.390625 0.1875 "/></g></g></g><g fill="#292929" fill-opacity="1"><g transform="translate(66.526395, 405.796593)"><g><path d="M 3.347656 0 L 3.347656 -4.886719 C 3.347656 -6.152344 3.519531 -6.851562 3.914062 -7.3125 C 4.21875 -7.6875 4.699219 -7.894531 5.367188 -7.894531 C 5.910156 -7.894531 6.304688 -7.757812 6.578125 -7.46875 C 6.902344 -7.109375 7.058594 -6.527344 7.058594 -5.554688 L 7.058594 0 L 9.347656 0 L 9.347656 -5.519531 C 9.347656 -6.476562 9.347656 -7.347656 8.953125 -8.183594 C 8.527344 -9.074219 7.707031 -9.789062 5.964844 -9.789062 C 4.9375 -9.789062 4.117188 -9.449219 3.347656 -8.371094 L 3.347656 -9.585938 L 1.042969 -9.585938 L 1.042969 0 Z M 3.347656 0 "/></g></g></g><g fill="#292929" fill-opacity="1"><g transform="translate(76.863872, 405.796593)"><g><path d="M 5.519531 0.1875 C 7.808594 0.1875 9.601562 -1.078125 10.046875 -3.230469 L 7.550781 -3.230469 C 7.3125 -2.273438 6.628906 -1.691406 5.519531 -1.691406 C 4.03125 -1.691406 3.007812 -2.9375 3.007812 -4.851562 C 3.007812 -6.699219 4.03125 -7.910156 5.519531 -7.910156 C 6.511719 -7.910156 7.210938 -7.414062 7.5 -6.527344 L 10.011719 -6.527344 C 9.535156 -8.507812 7.824219 -9.789062 5.519531 -9.789062 C 2.613281 -9.789062 0.648438 -7.757812 0.648438 -4.851562 C 0.648438 -1.84375 2.632812 0.1875 5.519531 0.1875 Z M 5.519531 0.1875 "/></g></g></g><g fill="#292929" fill-opacity="1"><g transform="translate(87.474741, 405.796593)"><g><path d="M 3.367188 0 L 3.367188 -4.886719 C 3.367188 -6.152344 3.519531 -6.851562 3.914062 -7.3125 C 4.21875 -7.6875 4.714844 -7.894531 5.382812 -7.894531 C 5.929688 -7.894531 6.320312 -7.757812 6.59375 -7.46875 C 6.921875 -7.109375 7.058594 -6.527344 7.058594 -5.554688 L 7.058594 0 L 9.363281 0 L 9.363281 -5.519531 C 9.363281 -6.476562 9.363281 -7.347656 8.953125 -8.183594 C 8.542969 -9.074219 7.707031 -9.789062 5.964844 -9.789062 C 4.9375 -9.789062 4.136719 -9.449219 3.367188 -8.371094 L 3.367188 -13.039062 L 1.058594 -13.039062 L 1.058594 0 Z M 3.367188 0 "/></g></g></g><g clip-path="url(#747fd6d418)"><path fill="#737373" d="M 58.027344 434.703125 L 90.480469 434.703125 C 93.445312 434.703125 96.289062 435.890625 98.386719 438.007812 C 100.484375 440.125 101.664062 442.996094 101.664062 445.988281 L 101.664062 478.234375 C 101.664062 481.226562 100.484375 484.097656 98.386719 486.214844 C 96.289062 488.332031 93.445312 489.523438 90.480469 489.523438 L 58.027344 489.523438 C 55.058594 489.523438 52.214844 488.332031 50.117188 486.214844 C 48.019531 484.097656 46.84375 481.226562 46.84375 478.234375 L 46.84375 445.988281 C 46.84375 442.996094 48.019531 440.125 50.117188 438.007812 C 52.214844 435.890625 55.058594 434.703125 58.027344 434.703125 " fill-opacity="1" fill-rule="nonzero"/></g><g clip-path="url(#d5829c59e7)"><path fill="#737373" d="M 125.882812 439.039062 L 251.09375 439.039062 C 253.175781 439.039062 255.171875 439.863281 256.644531 441.332031 C 258.113281 442.800781 258.941406 444.792969 258.941406 446.871094 C 258.941406 448.945312 258.113281 450.9375 256.644531 452.40625 C 255.171875 453.875 253.175781 454.703125 251.09375 454.703125 L 125.882812 454.703125 C 123.800781 454.703125 121.804688 453.875 120.335938 452.40625 C 118.863281 450.9375 118.035156 448.945312 118.035156 446.871094 C 118.035156 444.792969 118.863281 442.800781 120.335938 441.332031 C 121.804688 439.863281 123.800781 439.039062 125.882812 439.039062 " fill-opacity="1" fill-rule="nonzero"/></g><g clip-path="url(#d7d36650e1)"><path fill="#a6a6a6" d="M 124.246094 460.140625 L 220.691406 460.140625 C 221.964844 460.140625 223.1875 460.628906 224.085938 461.496094 C 224.984375 462.363281 225.492188 463.542969 225.492188 464.769531 C 225.492188 465.996094 224.984375 467.171875 224.085938 468.039062 C 223.1875 468.910156 221.964844 469.394531 220.691406 469.394531 L 124.246094 469.394531 C 122.972656 469.394531 121.753906 468.910156 120.851562 468.039062 C 119.953125 467.171875 119.445312 465.996094 119.445312 464.769531 C 119.445312 463.542969 119.953125 462.363281 120.851562 461.496094 C 121.753906 460.628906 122.972656 460.140625 124.246094 460.140625 " fill-opacity="1" fill-rule="nonzero"/></g><g clip-path="url(#fd516be836)"><path fill="#a6a6a6" d="M 124.246094 472.570312 L 220.691406 472.570312 C 221.964844 472.570312 223.1875 473.058594 224.085938 473.925781 C 224.984375 474.792969 225.492188 475.96875 225.492188 477.199219 C 225.492188 478.425781 224.984375 479.601562 224.085938 480.46875 C 223.1875 481.339844 221.964844 481.824219 220.691406 481.824219 L 124.246094 481.824219 C 122.972656 481.824219 121.753906 481.339844 120.851562 480.46875 C 119.953125 479.601562 119.445312 478.425781 119.445312 477.199219 C 119.445312 475.96875 119.953125 474.792969 120.851562 473.925781 C 121.753906 473.058594 122.972656 472.570312 124.246094 472.570312 " fill-opacity="1" fill-rule="nonzero"/></g><g clip-path="url(#f4cf1c5f65)"><path fill="#737373" d="M 58.027344 506.316406 L 90.480469 506.316406 C 93.445312 506.316406 96.289062 507.503906 98.386719 509.621094 C 100.484375 511.738281 101.664062 514.609375 101.664062 517.605469 L 101.664062 549.847656 C 101.664062 552.84375 100.484375 555.714844 98.386719 557.832031 C 96.289062 559.945312 93.445312 561.136719 90.480469 561.136719 L 58.027344 561.136719 C 55.058594 561.136719 52.214844 559.945312 50.117188 557.832031 C 48.019531 555.714844 46.84375 552.84375 46.84375 549.847656 L 46.84375 517.605469 C 46.84375 514.609375 48.019531 511.738281 50.117188 509.621094 C 52.214844 507.503906 55.058594 506.316406 58.027344 506.316406 " fill-opacity="1" fill-rule="nonzero"/></g><g clip-path="url(#95cb86a280)"><path fill="#737373" d="M 125.882812 510.652344 L 251.09375 510.652344 C 253.175781 510.652344 255.171875 511.476562 256.644531 512.945312 C 258.113281 514.414062 258.941406 516.40625 258.941406 518.484375 C 258.941406 520.5625 258.113281 522.554688 256.644531 524.023438 C 255.171875 525.492188 253.175781 526.316406 251.09375 526.316406 L 125.882812 526.316406 C 123.800781 526.316406 121.804688 525.492188 120.335938 524.023438 C 118.863281 522.554688 118.035156 520.5625 118.035156 518.484375 C 118.035156 516.40625 118.863281 514.414062 120.335938 512.945312 C 121.804688 511.476562 123.800781 510.652344 125.882812 510.652344 " fill-opacity="1" fill-rule="nonzero"/></g><g clip-path="url(#82e662761b)"><path fill="#a6a6a6" d="M 124.246094 531.753906 L 220.691406 531.753906 C 221.964844 531.753906 223.1875 532.242188 224.085938 533.109375 C 224.984375 533.980469 225.492188 535.15625 225.492188 536.382812 C 225.492188 537.609375 224.984375 538.789062 224.085938 539.65625 C 223.1875 540.523438 221.964844 541.011719 220.691406 541.011719 L 124.246094 541.011719 C 122.972656 541.011719 121.753906 540.523438 120.851562 539.65625 C 119.953125 538.789062 119.445312 537.609375 119.445312 536.382812 C 119.445312 535.15625 119.953125 533.980469 120.851562 533.109375 C 121.753906 532.242188 122.972656 531.753906 124.246094 531.753906 " fill-opacity="1" fill-rule="nonzero"/></g><g clip-path="url(#2e97c0111b)"><path fill="#a6a6a6" d="M 124.246094 544.183594 L 220.691406 544.183594 C 221.964844 544.183594 223.1875 544.671875 224.085938 545.539062 C 224.984375 546.410156 225.492188 547.585938 225.492188 548.8125 C 225.492188 550.039062 224.984375 551.21875 224.085938 552.085938 C 223.1875 552.953125 221.964844 553.441406 220.691406 553.441406 L 124.246094 553.441406 C 122.972656 553.441406 121.753906 552.953125 120.851562 552.085938 C 119.953125 551.21875 119.445312 550.039062 119.445312 548.8125 C 119.445312 547.585938 119.953125 546.410156 120.851562 545.539062 C 121.753906 544.671875 122.972656 544.183594 124.246094 544.183594 " fill-opacity="1" fill-rule="nonzero"/></g><g clip-path="url(#a84af43cab)"><path fill="#737373" d="M 58.027344 577.929688 L 90.480469 577.929688 C 93.445312 577.929688 96.289062 579.121094 98.386719 581.238281 C 100.484375 583.355469 101.664062 586.226562 101.664062 589.21875 L 101.664062 621.464844 C 101.664062 624.457031 100.484375 627.328125 98.386719 629.445312 C 96.289062 631.5625 93.445312 632.75 90.480469 632.75 L 58.027344 632.75 C 55.058594 632.75 52.214844 631.5625 50.117188 629.445312 C 48.019531 627.328125 46.84375 624.457031 46.84375 621.464844 L 46.84375 589.21875 C 46.84375 586.226562 48.019531 583.355469 50.117188 581.238281 C 52.214844 579.121094 55.058594 577.929688 58.027344 577.929688 " fill-opacity="1" fill-rule="nonzero"/></g><g clip-path="url(#bec1760d8b)"><path fill="#737373" d="M 125.882812 582.269531 L 251.09375 582.269531 C 253.175781 582.269531 255.171875 583.09375 256.644531 584.5625 C 258.113281 586.03125 258.941406 588.023438 258.941406 590.097656 C 258.941406 592.175781 258.113281 594.167969 256.644531 595.636719 C 255.171875 597.105469 253.175781 597.929688 251.09375 597.929688 L 125.882812 597.929688 C 123.800781 597.929688 121.804688 597.105469 120.335938 595.636719 C 118.863281 594.167969 118.035156 592.175781 118.035156 590.097656 C 118.035156 588.023438 118.863281 586.03125 120.335938 584.5625 C 121.804688 583.09375 123.800781 582.269531 125.882812 582.269531 " fill-opacity="1" fill-rule="nonzero"/></g><g clip-path="url(#6424d3e417)"><path fill="#a6a6a6" d="M 124.246094 603.371094 L 220.691406 603.371094 C 221.964844 603.371094 223.1875 603.859375 224.085938 604.726562 C 224.984375 605.59375 225.492188 606.769531 225.492188 607.996094 C 225.492188 609.226562 224.984375 610.402344 224.085938 611.269531 C 223.1875 612.136719 221.964844 612.625 220.691406 612.625 L 124.246094 612.625 C 122.972656 612.625 121.753906 612.136719 120.851562 611.269531 C 119.953125 610.402344 119.445312 609.226562 119.445312 607.996094 C 119.445312 606.769531 119.953125 605.59375 120.851562 604.726562 C 121.753906 603.859375 122.972656 603.371094 124.246094 603.371094 " fill-opacity="1" fill-rule="nonzero"/></g><g clip-path="url(#f13f601b2d)"><path fill="#a6a6a6" d="M 124.246094 615.800781 L 220.691406 615.800781 C 221.964844 615.800781 223.1875 616.289062 224.085938 617.15625 C 224.984375 618.023438 225.492188 619.199219 225.492188 620.425781 C 225.492188 621.65625 224.984375 622.832031 224.085938 623.699219 C 223.1875 624.566406 221.964844 625.054688 220.691406 625.054688 L 124.246094 625.054688 C 122.972656 625.054688 121.753906 624.566406 120.851562 623.699219 C 119.953125 622.832031 119.445312 621.65625 119.445312 620.425781 C 119.445312 619.199219 119.953125 618.023438 120.851562 617.15625 C 121.753906 616.289062 122.972656 615.800781 124.246094 615.800781 " fill-opacity="1" fill-rule="nonzero"/></g></svg>